<svg xmlns="http://www.w3.org/2000/svg" width="32" height="32" viewBox="0 0 24 24">
  <path fill="#008000" d="M22 3H2a1 1 0 0 0-1 1v16a1 1 0 0 0 1 1h20a1 1 0 0 0 1-1V4a1 1 0 0 0-1-1zM11.5 17c-1.8 0-3.4-.7-4.5-1.8V8.8c1.1-1.1 2.7-1.8 4.5-1.8s3.4.7 4.5 1.8v6.4c-1.1 1.1-2.7 1.8-4.5 1.8zM8 11.9v.1c0 .3.2.5.5.5s.5-.2.5-.5v-.1c0-.3-.2-.5-.5-.5s-.5.2-.5.5zm.5 2.5c-.8 0-1.5-.7-1.5-1.5S7.7 11 8.5 11s1.5.7 1.5 1.5-.7 1.5-1.5 1.5zm5.5-2.5v.1c0 .3.2.5.5.5s.5-.2.5-.5v-.1c0-.3-.2-.5-.5-.5s-.5.2-.5.5zm.5 2.5c-.8 0-1.5-.7-1.5-1.5s.7-1.5 1.5-1.5 1.5.7 1.5 1.5-.7 1.5-1.5 1.5z"/>
</svg>